<svg xmlns="http://www.w3.org/2000/svg" viewBox="0 0 800 500" fill="none" stroke="#000" stroke-linecap="square" stroke-linejoin="miter">
  <title>Planta arquitetonica decorativa, sem escala</title>
  <g stroke-width=".7" opacity=".4" stroke-dasharray="5 8">
    <path d="M101 43v416M320 43v416M527 43v416M707 43v416M54 80h700M54 262h700M54 422h700"/>
  </g>
  <g stroke-width="1.5">
    <path d="M101 81h610v343H101zM112 92h588v321H112zM314 92v106h12V92M314 252v161h12V252M112 256h144v12H112M326 256h197v12H326M517 92v106h12V92M517 251v162h12V251M529 256h171v12H529"/>
    <path d="M313 198h-53v54M313 198a54 54 0 0 1-54 54M516 198h-53v54M516 198a54 54 0 0 1-54 54M256 268v54h58M256 268a58 58 0 0 1 58 54" stroke-width=".85"/>
    <path d="M163 81h106v11H163zM372 81h103v11H372zM567 81h93v11h-93zM101 135h11v73h-11zM700 301h11v70h-11zM157 413h106v11H157zM559 413h94v11h-94z"/>
    <path d="M375 413v-112h96v112M375 315h96M375 329h96M375 343h96M375 357h96M375 371h96M375 385h96M375 399h96M423 404v-93m-6 10 6-10 6 10"/>
  </g>
  <g stroke-width=".85" opacity=".62">
    <path d="M138 116h147v75H138zM146 124h46v28h-46zM232 124h45v28h-45zM348 117h142v75H348zM356 125h45v28h-45zM436 125h45v28h-45zM548 109h134v24H548zM558 144h114v84H558zM568 154h94v64h-94z"/>
    <path d="M137 294h85v97h-85zM146 303h67v79h-67zM547 293h133v24H547zM658 317v70h22v-70M559 344h62v42h-62z"/>
    <path d="M102 51h610M102 40v22M314 40v22M517 40v22M712 40v22M97 56l10-10M309 56l10-10M512 56l10-10M707 56l10-10M73 81v343M62 81h22M62 256h22M62 424h22M68 86l10-10M68 261l10-10M68 429l10-10M102 454h610M102 442v24M712 442v24M97 459l10-10M707 459l10-10"/>
    <path d="M748 386v-38m-7 14 7-14 7 14M34 304h20m-10-10v20"/>
  </g>
</svg>
