<svg xmlns="http://www.w3.org/2000/svg" viewBox="0 0 800 500" fill="none" stroke="#000" stroke-linecap="square" stroke-linejoin="miter">
  <title>Estudo volumetrico residencial decorativo, sem escala</title>
  <g stroke-width="0.75" opacity=".45">
    <path d="M58 383 454 433 768 288M75 417 450 465 757 323M110 170V437M440 205V484M722 80V345M91 177 444 220 745 81M84 162 444 207 751 65"/>
    <path d="M110 445 438 486M110 432V454M438 472V495M106 449l8-9M434 490l8-9M466 470 745 341M463 458l10 24M740 330l10 23M462 475l9-10M741 345l9-10"/>
    <path d="M71 193V387M61 190l22 3M61 384l22 3M66 198l10-10M66 392l10-10M49 191V287M39 188l22 3M39 284l22 3M44 196l10-10M44 292l10-10"/>
    <path d="M110 289 440 329 722 199M100 292 440 334 731 200M99 392 440 436 732 300" stroke-dasharray="5 8"/>
  </g>
  <g stroke-width="1.45">
    <path d="m110 190 330 40 282-130-330-40zM110 190v200l330 40 282-130V100M440 230v200"/>
    <path d="m98 284 342 42 294-134v13L440 340 98 297zM98 284l12-6M734 192l-12-5M102 188v10l338 41 290-134V94"/>
    <path d="m135 219 280 34v61l-280-34zM157 222v61M278 237v61M301 239v62M392 250v61"/>
    <path d="m137 312 150 18v77l-150-18zM155 314v77M174 316v77M193 319v77M212 321v77M231 324v77M250 326v77M269 328v77"/>
    <path d="m321 335 72 9v76l-72-9zM354 339v77M367 377l9 1"/>
    <path d="m466 235 228-105v61L466 296zM498 220v61M563 190v61M596 175v61M659 146v61"/>
    <path d="m466 355 228-105v37L466 392zM510 335v37M560 312v37M610 289v37M660 266v37"/>
    <path d="M466 339v74M694 235v70M460 414l242-111M120 393l318 39"/>
  </g>
  <g stroke-width=".75" opacity=".65">
    <path d="m138 201 302 37 258-119M466 245l228-105M466 270l228-105M466 365l228-105M135 248l280 34M111 402l319 40M454 441l269-124"/>
    <path d="M42 434h24m-12-12v24M760 112h24m-12-12v24"/>
  </g>
</svg>
